<svg width="101" height="101" viewBox="0 0 101 101" fill="none" xmlns="http://www.w3.org/2000/svg">
<circle cx="50.5" cy="50.5" r="47" fill="#86BE43" stroke="white" stroke-width="7"/>
<path d="M43.04 37.08V56.68C43.04 59.4 42.2533 61.52 40.68 63.04C39.1067 64.5333 37 65.28 34.36 65.28C31.6933 65.28 29.5333 64.5067 27.88 62.96C26.2533 61.4133 25.44 59.2533 25.44 56.48H31.04C31.0667 57.68 31.3467 58.6133 31.88 59.28C32.44 59.9467 33.24 60.28 34.28 60.28C35.2933 60.28 36.0667 59.96 36.6 59.32C37.1333 58.68 37.4 57.8 37.4 56.68V37.08H43.04ZM74.6525 37.08L64.4125 65H57.6125L47.3725 37.08H53.3725L61.0525 59.28L68.6925 37.08H74.6525Z" fill="white"/>
</svg>
